<svg xmlns="http://www.w3.org/2000/svg" version="1.1" xmlns:xlink="http://www.w3.org/1999/xlink" width="512" height="512" x="0" y="0" viewBox="0 0 512 512" style="enable-background:new 0 0 512 512" xml:space="preserve" class=""><g><path fill-rule="evenodd" d="M429.734 480.335a5.466 5.466 0 0 1-5.465 5.455H96.681a5.46 5.46 0 0 1-5.451-5.455V253.474L256 115.249l173.734 145.743zm77.812-219.223a19.433 19.433 0 0 0-2.384-27.186L258.785 27.245a4.264 4.264 0 0 0-5.57 0L6.838 233.926a19.433 19.433 0 0 0-2.384 27.186l2.66 3.17a19.564 19.564 0 0 0 27.19 2.384L244.365 90.438a18.08 18.08 0 0 1 23.26 0L477.7 266.666a19.566 19.566 0 0 0 27.19-2.384z" fill="#144cda" opacity="1" data-original="#000000" class=""></path></g></svg>