<svg xmlns="http://www.w3.org/2000/svg" version="1.1" xmlns:xlink="http://www.w3.org/1999/xlink" width="512" height="512" x="0" y="0" viewBox="0 0 32 32" style="enable-background:new 0 0 512 512" xml:space="preserve" class=""><g><path d="M25 29a.997.997 0 0 1-.707-.293l-2-2A1 1 0 0 1 23 25h7a1 1 0 1 1 0 2h-4.586l.293.293A.999.999 0 0 1 25 29zM30 23h-7a1 1 0 1 1 0-2h4.586l-.293-.293a.999.999 0 1 1 1.414-1.414l2 2A1 1 0 0 1 30 23z" fill="#1495ff" opacity="1" data-original="#000000" class=""></path><path d="M20.228 24.853a3 3 0 0 1 .548-.858A2.976 2.976 0 0 1 20 22c0-1.654 1.346-3 3-3h2.17c.147-.417.387-.799.709-1.121a2.982 2.982 0 0 1 4.121-.1V10a5 5 0 0 0-5-5H6a5 5 0 0 0-5 5v10a5 5 0 0 0 5 5h14.18c.017-.049.029-.099.049-.147zM24 8h1.5c.827 0 1.5.673 1.5 1.5V11a1 1 0 0 1-2 0v-1h-1a1 1 0 0 1 0-2zM7 22H5.5c-.827 0-1.5-.673-1.5-1.5V19a1 1 0 1 1 2 0v1h1a1 1 0 1 1 0 2zm0-12H6v1a1 1 0 0 1-2 0V9.5C4 8.673 4.673 8 5.5 8H7a1 1 0 0 1 0 2zm8.5 9a4 4 0 1 1 0-8 4 4 0 0 1 0 8z" fill="#1495ff" opacity="1" data-original="#000000" class=""></path></g></svg>